<svg id="Layer_2" data-name="Layer 2" xmlns="http://www.w3.org/2000/svg" viewBox="0 0 91.43 93"><defs><style>.cls-1{fill:#22b573;stroke:#22b573;stroke-miterlimit:10;stroke-width:5px;}</style></defs><path class="cls-1" d="M70.41,17.32c.53,9.14-5.32,19.1-10.72,18.46-5-.6-8.89-10.33-8.2-18.46C52,10.9,55.69,2.51,61,2.5S70,10.66,70.41,17.32Z"/><path class="cls-1" d="M40.64,17.32c1.28,7.79-.88,18.16-5.51,19.75C29.54,39,19.87,28.3,20.47,17.32c.38-6.8,4.75-14.87,10.09-14.82C36.21,2.55,39.72,11.71,40.64,17.32Z"/><path class="cls-1" d="M14.72,46.34c1.63,5.53,1.81,13.35-1,14.83-3,1.57-8.47-4.35-10.38-11.07S3,35.32,6.29,35C9.37,34.67,13.17,41.09,14.72,46.34Z"/><path class="cls-1" d="M88.45,49C87,55.62,82,61.64,79,60.3c-2.78-1.25-3.08-8.51-2-13.67,1.14-5.45,4.56-12.11,7.64-12C87.91,34.79,89.9,42.46,88.45,49Z"/><path class="cls-1" d="M61.35,55A37.89,37.89,0,0,1,72.5,67.35c3.25,5.82,7.8,17.5,4.57,21.58-3.48,4.39-14.76-1.59-18.76-3.7C50.9,81.32,49.24,78,44.62,78.45c-4.18.44-4.86,3.32-11.15,6.78-2.59,1.43-12.79,7-16.22,3.08-3.65-4.22.88-18.76,7.6-27.74,1.83-2.45,7.27-9.3,16.23-11.1C50.63,47.55,58,52.67,61.35,55Z"/></svg>